<svg width="512" height="512" viewBox="0 0 512 512" xmlns="http://www.w3.org/2000/svg">
  <!-- 背景圆形 -->
  <circle cx="256" cy="256" r="240" fill="url(#gradient)" stroke="#1e40af" stroke-width="8"/>
  
  <!-- 渐变定义 -->
  <defs>
    <linearGradient id="gradient" x1="0%" y1="0%" x2="100%" y2="100%">
      <stop offset="0%" style="stop-color:#3b82f6;stop-opacity:1" />
      <stop offset="100%" style="stop-color:#8b5cf6;stop-opacity:1" />
    </linearGradient>
  </defs>
  
  <!-- GitHub 图标 -->
  <path d="M256 70c-102.6 0-186 83.4-186 186 0 82.1 53.3 151.8 127.3 176.4 9.3 1.7 12.3-4 12.3-8.9v-34.7c-51.7 11.2-62.5-21.9-62.5-21.9-8.4-21.5-20.6-27.2-20.6-27.2-16.9-11.5 1.3-11.3 1.3-11.3 18.7 1.3 28.5 19.2 28.5 19.2 16.6 28.4 43.5 20.2 54.1 15.4 1.7-12 6.5-20.2 11.8-24.9-41.3-4.7-84.7-20.6-84.7-91.9 0-20.3 7.3-36.9 19.2-49.9-1.9-4.7-8.3-23.6 1.8-49.2 0 0 15.6-5 51.1 19.1 14.8-4.1 30.7-6.2 46.5-6.3 15.8.1 31.7 2.2 46.6 6.3 35.5-24.1 51-19.1 51-19.1 10.1 25.6 3.8 44.5 1.8 49.2 11.9 13 19.1 29.6 19.1 49.9 0 71.4-43.5 87.1-84.9 91.7 6.7 5.8 12.8 17.1 12.8 34.4v51 c0 4.9 3.1 10.7 12.4 8.9C388.7 407.8 442 338.1 442 256c0-102.6-83.4-186-186-186z" fill="white"/>
  
  <!-- 装饰性星星 -->
  <circle cx="150" cy="150" r="4" fill="white" opacity="0.8"/>
  <circle cx="380" cy="180" r="3" fill="white" opacity="0.6"/>
  <circle cx="120" cy="320" r="3" fill="white" opacity="0.7"/>
  <circle cx="400" cy="350" r="4" fill="white" opacity="0.5"/>
</svg>
