<svg width="1200" height="630" viewBox="0 0 1200 630" xmlns="http://www.w3.org/2000/svg">
  <!-- 背景渐变 -->
  <defs>
    <linearGradient id="bgGradient" x1="0%" y1="0%" x2="100%" y2="100%">
      <stop offset="0%" style="stop-color:#3b82f6;stop-opacity:1" />
      <stop offset="100%" style="stop-color:#8b5cf6;stop-opacity:1" />
    </linearGradient>
  </defs>
  
  <rect width="1200" height="630" fill="url(#bgGradient)"/>
  
  <!-- 装饰性网格 -->
  <defs>
    <pattern id="grid" width="40" height="40" patternUnits="userSpaceOnUse">
      <path d="M 40 0 L 0 0 0 40" fill="none" stroke="rgba(255,255,255,0.1)" stroke-width="1"/>
    </pattern>
  </defs>
  <rect width="1200" height="630" fill="url(#grid)"/>
  
  <!-- GitHub 图标 -->
  <g transform="translate(100, 200)">
    <circle cx="50" cy="50" r="45" fill="rgba(255,255,255,0.2)"/>
    <path d="M50 15c-19.3 0-35 15.7-35 35 0 15.5 10 28.6 23.9 33.2 1.7.3 2.3-.8 2.3-1.7v-6.5c-9.7 2.1-11.7-4.1-11.7-4.1-1.6-4-3.9-5.1-3.9-5.1-3.2-2.2.2-2.1.2-2.1 3.5.2 5.4 3.6 5.4 3.6 3.1 5.3 8.2 3.8 10.2 2.9.3-2.3 1.2-3.8 2.2-4.7-7.8-.9-16-3.9-16-17.3 0-3.8 1.4-6.9 3.6-9.4-.4-.9-1.6-4.4.3-9.2 0 0 2.9-.9 9.6 3.6 2.8-.8 5.8-1.2 8.7-1.2 3 0 6 .4 8.8 1.2 6.7-4.5 9.6-3.6 9.6-3.6 1.9 4.8.7 8.3.3 9.2 2.2 2.5 3.6 5.6 3.6 9.4 0 13.4-8.2 16.4-16 17.3 1.3 1.1 2.4 3.2 2.4 6.5v9.6c0 .9.6 2 2.3 1.7C75 78.6 85 65.5 85 50c0-19.3-15.7-35-35-35z" fill="white"/>
  </g>
  
  <!-- 主标题 -->
  <text x="250" y="280" font-family="Arial, sans-serif" font-size="64" font-weight="bold" fill="white">
    GitHub项目精选
  </text>
  
  <!-- 副标题 -->
  <text x="250" y="340" font-family="Arial, sans-serif" font-size="32" fill="rgba(255,255,255,0.9)">
    发现优质开源项目，挖掘商业价值与技术机会
  </text>
  
  <!-- 装饰性元素 -->
  <circle cx="1000" cy="150" r="8" fill="rgba(255,255,255,0.6)"/>
  <circle cx="1050" cy="200" r="6" fill="rgba(255,255,255,0.4)"/>
  <circle cx="950" cy="250" r="4" fill="rgba(255,255,255,0.5)"/>
  <circle cx="1100" cy="300" r="5" fill="rgba(255,255,255,0.3)"/>
</svg>
